<svg width="212" height="214" viewBox="0 0 212 214" fill="none" xmlns="http://www.w3.org/2000/svg">
<path d="M100.326 97.1207L149.633 53.0794C150.407 52.3887 151.58 52.4035 152.335 53.1136L171.75 71.3587V53.1828C171.75 52.3801 172.23 51.6551 172.969 51.3416L178.968 48.7964C179.609 48.5245 180.345 48.6055 180.912 49.0101L186.162 52.7605C186.688 53.1359 187 53.7421 187 54.388V71.0861C187 71.267 186.975 71.4471 186.927 71.6214L184.698 79.645C184.57 80.1055 184.612 80.5967 184.814 81.0294L187 85.6901L191.87 90.2663C192.272 90.6443 192.5 91.1718 192.5 91.7238V114.359L190.057 155.889C190.021 156.501 189.706 157.063 189.203 157.413L179.015 164.501C178.68 164.734 178.281 164.859 177.873 164.859H112.686C111.712 164.859 110.88 164.157 110.715 163.197L99.6874 98.9507C99.5708 98.2713 99.8122 97.5799 100.326 97.1207Z" fill="#76C4AC"/>
<path d="M187 85.6901L171.75 71.3587L152.335 53.1136C151.58 52.4035 150.407 52.3887 149.633 53.0794L100.326 97.1207C99.8122 97.5799 99.5708 98.2713 99.6874 98.9507L110.715 163.197C110.88 164.157 111.712 164.859 112.686 164.859H177.873C178.281 164.859 178.68 164.734 179.015 164.501L189.203 157.413C189.706 157.063 190.021 156.501 190.057 155.889L192.5 114.359V91.7238C192.5 91.1718 192.272 90.6443 191.87 90.2663L187 85.6901ZM171.75 71.3587V53.1828C171.75 52.3801 172.23 51.6551 172.969 51.3416L178.968 48.7964C179.609 48.5245 180.345 48.6055 180.912 49.0101L186.162 52.7605C186.688 53.1359 187 53.7421 187 54.388V71.0861C187 71.267 186.975 71.4471 186.927 71.6214L184.698 79.645C184.57 80.1055 184.612 80.5967 184.815 81.0294L187 85.6901" stroke="#76C4AC" stroke-width="4" stroke-linecap="round"/>
<path d="M65.0506 164.478L45.8522 105.478C45.4316 104.185 46.3949 102.859 47.754 102.859H106.5C107.605 102.859 108.5 103.754 108.5 104.859V163.859C108.5 164.963 107.605 165.859 106.5 165.859H66.9524C66.0863 165.859 65.3186 165.301 65.0506 164.478Z" fill="#8DC377"/>
<path d="M51.9671 90.6863L48.3594 82.7494C47.8901 81.7169 48.3723 80.5012 49.4217 80.0712L76.5039 68.9719C77.3766 68.6142 78.3805 68.9148 78.913 69.6931L83.3012 76.1066C83.9514 77.0569 83.6669 78.3586 82.6796 78.951L80.6309 80.1802C79.9448 80.5918 79.5701 81.3727 79.6782 82.1654L81 91.8587C87.5 85.6921 100.545 74.3761 104.945 74.3761C108.65 74.3761 111.434 77.9221 112.818 80.5348C113.23 81.3126 112.976 82.2525 112.289 82.8032L101.548 91.4188C101.193 91.7036 100.752 91.8587 100.297 91.8587H81H53.7878C53.0035 91.8587 52.2916 91.4003 51.9671 90.6863Z" fill="#8DC377"/>
<path d="M48.6952 62.1598L45.9591 56.3836C45.4479 55.3044 45.9902 54.0206 47.1203 53.6347L63.2491 48.1273C64.4243 47.726 65.6773 48.4815 65.871 49.7081L66.7511 55.2825C66.8967 56.2046 66.3851 57.1047 65.5184 57.4514L51.2455 63.1605C50.2645 63.5529 49.1475 63.1146 48.6952 62.1598Z" fill="#8DC377"/>
<path d="M81 91.8587H53.7878C53.0035 91.8587 52.2916 91.4003 51.9671 90.6863L48.3594 82.7494C47.8901 81.7169 48.3723 80.5012 49.4217 80.0712L76.5039 68.9719C77.3766 68.6142 78.3805 68.9148 78.913 69.6931L83.3012 76.1066C83.9514 77.0569 83.6669 78.3586 82.6796 78.951L80.6309 80.1802C79.9448 80.5918 79.5701 81.3727 79.6782 82.1654L81 91.8587ZM81 91.8587C87.5 85.6921 100.545 74.3761 104.945 74.3761C108.65 74.3761 111.434 77.9221 112.818 80.5348C113.23 81.3126 112.976 82.2525 112.289 82.8032L101.548 91.4188C101.193 91.7036 100.752 91.8587 100.297 91.8587H81ZM65.871 49.7081L66.7511 55.2825C66.8967 56.2046 66.3851 57.1047 65.5184 57.4514L51.2455 63.1605C50.2645 63.5529 49.1475 63.1146 48.6952 62.1598L45.9591 56.3836C45.4479 55.3044 45.9902 54.0206 47.1203 53.6347L63.2491 48.1273C64.4243 47.726 65.6773 48.4815 65.871 49.7081ZM108.5 104.859V163.859C108.5 164.963 107.605 165.859 106.5 165.859H66.9524C66.0863 165.859 65.3186 165.301 65.0506 164.478L45.8522 105.478C45.4316 104.185 46.3949 102.859 47.754 102.859H106.5C107.605 102.859 108.5 103.754 108.5 104.859Z" stroke="#8DC377" stroke-width="4" stroke-linecap="round"/>
<path d="M81.5 85.3587L101.5 71.3587" stroke="#BCDFB1" stroke-width="5" stroke-linecap="round"/>
<path d="M85.5 71.2812V60.2942C85.5 59.2152 86.356 58.3307 87.4345 58.2953L113.934 57.4265C115.064 57.3894 116 58.2951 116 59.4254V75.6824C116 77.2675 114.244 78.2226 112.913 77.3616L99.9092 68.947C99.342 68.58 98.6278 68.5242 98.0104 68.7985L88.3123 73.1088C86.9897 73.6966 85.5 72.7285 85.5 71.2812Z" fill="#6BBCAC"/>
<path d="M96 37.8587V35.3587C96 34.2542 96.8954 33.3587 98 33.3587H123.5C124.605 33.3587 125.5 34.2542 125.5 35.3587V37.8587C125.5 38.9633 124.605 39.8587 123.5 39.8587H98C96.8954 39.8587 96 38.9633 96 37.8587Z" fill="#6BBCAC"/>
<path d="M85.5 71.2812V60.2942C85.5 59.2152 86.356 58.3307 87.4345 58.2953L113.934 57.4265C115.064 57.3894 116 58.2951 116 59.4254V75.6824C116 77.2675 114.244 78.2226 112.913 77.3616L99.9092 68.947C99.342 68.58 98.6278 68.5242 98.0104 68.7985L88.3123 73.1088C86.9897 73.6966 85.5 72.7285 85.5 71.2812Z" stroke="#6BBCAC" stroke-width="5" stroke-linecap="round"/>
<path d="M96 37.8587V35.3587C96 34.2542 96.8954 33.3587 98 33.3587H123.5C124.605 33.3587 125.5 34.2542 125.5 35.3587V37.8587C125.5 38.9633 124.605 39.8587 123.5 39.8587H98C96.8954 39.8587 96 38.9633 96 37.8587Z" stroke="#6BBCAC" stroke-width="5" stroke-linecap="round"/>
<path d="M95.4021 43.5464L88.765 51.179C87.6586 52.4513 88.5265 54.4377 90.2118 54.4904L116.786 55.3208C117.532 55.3441 118.229 54.9501 118.593 54.299L123.333 45.8359C124.079 44.5028 123.116 42.8587 121.588 42.8587H96.9113C96.3324 42.8587 95.7819 43.1096 95.4021 43.5464Z" fill="#BBDFD4" stroke="#BBDFD4" stroke-width="5" stroke-linecap="round"/>
<path d="M136.682 61.0232L119.824 75.9209C118.533 77.0618 116.5 76.1452 116.5 74.4222V56.6612C116.5 56.1462 116.699 55.651 117.055 55.2788L125.788 46.1486C126.669 45.2278 128.174 45.3544 128.889 46.4093L137.014 58.4028C137.578 59.2354 137.436 60.3573 136.682 61.0232Z" fill="#2B97A2"/>
<path d="M102 99.3587L149.159 55.1168C149.917 54.4056 151.094 54.3937 151.866 55.0896L201 99.3587" stroke="#BBDFD2" stroke-width="4" stroke-linecap="round"/>
<path d="M56 166.359C53.7086 157.83 51.5433 150.02 49.5 142.877C46.9165 133.844 44.5282 125.875 42.3272 118.859C39.1097 108.603 36.2924 100.385 33.8502 93.8587C28.0101 78.2526 24.3158 72.3263 22.4271 71.3689C21.858 71.0804 21.156 71.3587 20.5179 71.3587H2M56 166.359C51.0999 170.88 44.2788 181.495 55.3035 188.439C55.7491 188.72 56.2772 188.859 56.8038 188.859H178M56 166.359H75M193.5 101.859C193.833 112.025 194.3 135.659 193.5 148.859C192.7 162.059 182.833 166.025 178 166.359H108.5M108.5 166.359V142.877M108.5 166.359H93M108.5 101.859V118.859M42.3272 118.859H108.5M108.5 118.859V142.877M49.5 142.877H108.5M33.8502 93.8587H52M58.5 93.8587L75 166.359M58.5 93.8587H81M58.5 93.8587H52M75 166.359H93M85 93.8587H101H103.538M85 93.8587L93 166.359M85 93.8587H81M95 101.859L103.538 93.8587M172 69.3022L186.5 82.4153L208 101.859M172 69.3022L152.548 51.711C151.391 50.6642 149.624 50.6797 148.485 51.7469L139 60.6335L116.88 81.3587L103.538 93.8587M172 69.3022C172 69.3022 168 53.3587 172 49.8587C176 46.3587 183.5 46.8587 186.5 49.8587C189.5 52.8587 186.5 82.4153 186.5 82.4153M124 112.859C126.833 107.359 134.1 99.6587 140.5 112.859M162 112.859C164.5 107.859 171.2 100.859 178 112.859M132 130.859C138.167 138.359 154.4 148.859 170 130.859M81 93.8587L80.1339 83.0319C80.0507 81.9923 80.5134 80.9841 81.3559 80.3693L84.7963 77.8587M116.88 81.3587L100.27 69.1589C99.2162 68.3848 97.7822 68.3825 96.7258 69.1534L84.7963 77.8587M116.88 81.3587V56.3587M52 93.8587L46.164 78.2959C46.0553 78.0062 45.9908 77.7038 45.9818 77.3945C45.88 73.91 46.4418 67.3878 49.5 65.8587M49.5 65.8587C52.7 64.2587 63.5 58.8587 68.5 56.3587M49.5 65.8587L44.073 56.7795C43.1464 55.2293 43.7896 53.2177 45.4437 52.4927L61.0989 45.6304C62.675 44.9395 64.508 45.7134 65.1122 47.3247L68.5 56.3587M84.7963 77.8587C84.4421 77.2762 84.0363 76.5982 83.6015 75.8587C81.0506 71.5208 77.5 65.0675 77.5 63.3587C77.5 61.3587 71.5 57.8587 68.5 56.3587M95 42.3587L83.6015 56.3587V75.8587M83.6015 56.3587H116.88M116.88 56.3587L126.5 42.3587M95 42.3587V35.3587C95 33.7019 96.3431 32.3587 98 32.3587H123.5C125.157 32.3587 126.5 33.7019 126.5 35.3587V42.3587M95 42.3587H126.5M126.5 42.3587L139 60.6335" stroke="#104E67" stroke-width="4" stroke-linecap="round"/>
<circle cx="76" cy="200.359" r="10" fill="#8DC377" stroke="#125671" stroke-width="7"/>
<circle cx="157" cy="200.359" r="10" fill="#8DC377" stroke="#125671" stroke-width="7"/>
<path d="M210.372 1.09409C174.921 4.15433 174.953 26.2774 179.4 36.9564L182.259 38.3908C190.995 41.1004 208.848 37.4345 210.372 1.09409Z" fill="#89C059" stroke="#89C059" stroke-width="2"/>
<path d="M178.002 41.9387C177.999 42.606 177.995 43.2733 177.992 43.9406C179.384 43.885 180.776 43.8293 182.167 43.7736C182.111 43.1087 182.055 42.4437 181.998 41.7788C181.959 41.4135 181.971 40.9518 182.019 40.4819C183.519 31.39 190.095 22.834 197.117 15.8949C197.51 15.5105 197.913 15.1249 198.325 14.7384C198.442 14.6292 198.558 14.5201 198.675 14.411C198.467 14.1687 198.259 13.9264 198.052 13.6841C197.926 13.7824 197.8 13.8808 197.675 13.9791C197.225 14.332 196.783 14.6846 196.351 15.0367C188.62 21.5587 181.112 29.0691 178.214 39.8952C178.093 40.5287 177.999 41.1823 178.002 41.9387Z" fill="#104E67"/>
</svg>
